<svg height="100%" width="100%" xmlns="http://www.w3.org/2000/svg" version="1.1" viewBox="0 0 400 400">
    <defs>
    <linearGradient y1="144.762" id="LinearGradient" x1="272.274" y2="45.0625" x2="36.817" gradientUnits="userSpaceOnUse" gradientTransform="matrix(1 0 0 1 102.622 156.25)">
    <stop stop-color="#ff0000" offset="0.0191774"/>
    <stop stop-color="#ff5151" offset="0.990008"/>
    </linearGradient>
    <linearGradient y1="144.762" id="LinearGradient_2" x1="272.274" y2="45.0625" x2="36.817" gradientUnits="userSpaceOnUse" gradientTransform="matrix(1 0 0 1 102.622 156.25)">
    <stop stop-color="#ff0000" offset="0.0191774"/>
    <stop stop-color="#ff5151" offset="0.990008"/>
    </linearGradient>
    <linearGradient y1="144.762" id="LinearGradient_3" x1="272.274" y2="45.0625" x2="36.817" gradientUnits="userSpaceOnUse" gradientTransform="matrix(1 0 0 1 102.622 156.25)">
    <stop stop-color="#ff0000" offset="0.0191774"/>
    <stop stop-color="#ff5151" offset="0.990008"/>
    </linearGradient>
    </defs>
    <g id="レイヤー 1" >
    <g opacity="1">
    <path d="M28.6407+86.0374L230.35+86.0374L230.35+139.065L162.674+139.065L162.674+300.784L96.3165+300.784L96.3165+139.065L28.6407+139.065L28.6407+86.0374Z" opacity="1" fill="#e5e5e5"/>
    </g>
    <g opacity="1">
    <path d="M107.309+300.365L107.309+200.15L158.92+200.15C168.491+200.15+175.805+200.971+180.864+202.611C185.922+204.252+190.001+207.294+193.1+211.737C196.199+216.181+197.748+221.593+197.748+227.973C197.748+233.533+196.563+238.329+194.194+242.362C191.824+246.396+188.565+249.665+184.418+252.172C181.775+253.767+178.152+255.089+173.549+256.137C177.241+257.367+179.929+258.598+181.616+259.828C182.755+260.648+184.407+262.403+186.572+265.092C188.736+267.781+190.183+269.854+190.912+271.313L205.883+300.365L170.883+300.365L154.34+269.74C152.244+265.775+150.375+263.201+148.735+262.016C146.502+260.466+143.972+259.691+141.147+259.691L138.412+259.691L138.412+300.365L107.309+300.365ZM138.412+240.756L151.469+240.756C152.882+240.756+155.616+240.3+159.672+239.389C161.723+238.979+163.398+237.93+164.697+236.244C165.995+234.558+166.645+232.621+166.645+230.434C166.645+227.198+165.619+224.714+163.569+222.982C161.518+221.251+157.667+220.385+152.016+220.385L138.412+220.385L138.412+240.756Z" opacity="1" fill="url(#LinearGradient)"/>
    <path d="M294.545+270.971L238.764+270.971C239.265+275.437+240.473+278.764+242.387+280.951C245.076+284.096+248.585+285.668+252.914+285.668C255.649+285.668+258.246+284.984+260.707+283.617C262.211+282.751+263.829+281.225+265.561+279.037L292.973+281.566C288.78+288.858+283.722+294.088+277.797+297.255C271.873+300.422+263.373+302.006+252.299+302.006C242.683+302.006+235.118+300.65+229.604+297.939C224.09+295.227+219.521+290.92+215.898+285.019C212.275+279.117+210.463+272.178+210.463+264.203C210.463+252.856+214.098+243.673+221.367+236.654C228.635+229.636+238.673+226.127+251.479+226.127C261.869+226.127+270.073+227.699+276.088+230.844C282.104+233.988+286.684+238.546+289.828+244.516C292.973+250.486+294.545+258.256+294.545+267.826L294.545+270.971ZM266.244+257.641C265.698+252.263+264.251+248.412+261.904+246.088C259.557+243.764+256.469+242.602+252.641+242.602C248.22+242.602+244.688+244.356+242.045+247.865C240.359+250.053+239.288+253.311+238.832+257.641L266.244+257.641Z" opacity="1" fill="url(#LinearGradient_2)"/>
    <path d="M383.754+200.15L383.754+300.365L357.709+300.365L357.709+289.633C354.063+294.19+350.737+297.266+347.729+298.861C343.718+300.958+339.252+302.006+334.33+302.006C324.441+302.006+316.887+298.246+311.669+290.727C306.451+283.207+303.842+274.07+303.842+263.315C303.842+251.283+306.725+242.078+312.49+235.697C318.255+229.317+325.58+226.127+334.467+226.127C338.797+226.127+342.727+226.856+346.259+228.315C349.791+229.773+352.924+231.96+355.659+234.877L355.659+200.15L383.754+200.15ZM355.864+263.861C355.864+258.165+354.656+253.915+352.241+251.112C349.825+248.31+346.772+246.908+343.08+246.908C339.845+246.908+337.133+248.253+334.946+250.941C332.758+253.63+331.664+258.142+331.664+264.477C331.664+270.401+332.792+274.742+335.048+277.499C337.304+280.256+340.095+281.635+343.422+281.635C346.977+281.635+349.939+280.245+352.309+277.465C354.679+274.685+355.864+270.15+355.864+263.861Z" opacity="1" fill="url(#LinearGradient_3)"/>
    </g>
    </g>
</svg>